<svg version="1" xmlns="http://www.w3.org/2000/svg" width="12" height="12"><g><path d="M0 5.996c-.007 3.316 2.669 5.996 5.993 6.004 3.315.008 5.995-2.665 6.007-5.99.011-3.309-2.666-6.001-5.977-6.01-3.333-.009-6.017 2.663-6.023 5.996z" fill="none"/><path fill-rule="evenodd" clip-rule="evenodd" fill="#fff" d="M0 5.996c.006-3.333 2.69-6.005 6.023-5.996 3.311.009 5.988 2.701 5.977 6.01-.012 3.325-2.692 5.998-6.007 5.99-3.324-.008-6-2.688-5.993-6.004zm7.001 2.253v-3.9790000000000005c-.001-.168-.091-.27-.25-.27-.833-.002-1.667-.002-2.5 0-.152 0-.25.097-.251.248v1.25c0 .155.098.25.257.252l.636.001.101.005v2.493h-.711c-.19 0-.283.092-.283.28v1.188c0 .194.092.284.289.285h3.428c.193-.001.283-.092.284-.289v-1.177c-.001-.196-.091-.286-.287-.286l-.713-.001zm-.998-7.001h-.718c-.195.001-.286.092-.286.288v1.176c0 .196.09.288.285.288h1.436c.188 0 .28-.093.281-.282v-1.187c0-.19-.092-.282-.28-.283h-.718z"/><path clip-rule="evenodd" d="M7.001 8.249h.713c.196.001.286.091.287.287v1.177c0 .196-.091.288-.286.288h-3.428c-.197 0-.289-.09-.289-.285v-1.188c.002-.187.094-.278.284-.278h.711v-2.493l-.1-.006-.636-.001c-.159-.002-.257-.097-.257-.252v-1.25c.001-.151.099-.248.25-.248.833-.002 1.667-.002 2.5 0 .16 0 .25.102.25.27v3.8440000000000003l.001.135z" fill="none"/><path clip-rule="evenodd" d="M6.003 1.248h.718c.188 0 .279.093.28.283v1.187c-.001.189-.093.282-.281.282h-1.436c-.195 0-.285-.092-.285-.288v-1.176c0-.196.091-.287.286-.288h.718z" fill="none"/></g></svg>